<?xml version="1.0" encoding="UTF-8"?>
<svg version="1.1" xmlns="http://www.w3.org/2000/svg" width="463" height="463">
<path d="M0 0 C1.40079035 0.11796129 2.79677913 0.29500262 4.1875 0.5 C7.10745814 0.8724671 9.07480449 0.98597416 12 0.4375 C19.08668243 -0.59597452 26.39325378 2.65718219 33 5 C33.33 4.34 33.66 3.68 34 3 C34 3.66 34 4.32 34 5 C34.56847656 5.13921875 35.13695312 5.2784375 35.72265625 5.421875 C42.48596214 7.13880343 47.41709666 8.53008311 52 14 C49.87929092 18.12980189 47.97854296 19.72654688 44 22 C42.29115995 23.62339805 40.62553283 25.29319053 39 27 C37.37163262 28.7041054 35.71230248 30.38025441 34 32 C33.34 32 32.68 32 32 32 C31.6596875 32.86625 31.6596875 32.86625 31.3125 33.75 C29.65238361 36.59591381 27.60812043 37.99841921 25 40 C23.31126121 41.64429829 21.64694485 43.31384218 20 45 C18.79300258 46.20966777 17.58460326 47.41793793 16.375 48.625 C15.80523437 49.19476563 15.23546875 49.76453125 14.6484375 50.3515625 C13.58067835 51.41932165 12.50306417 52.47735215 11.4140625 53.5234375 C9.7733765 55.15048893 9.7733765 55.15048893 8 58 C7.175 58.12375 6.35 58.2475 5.5 58.375 C4.2625 58.684375 4.2625 58.684375 3 59 C2.566875 60.0828125 2.566875 60.0828125 2.125 61.1875 C0.69470436 64.76323909 -1.36901185 66.14432277 -4.3203125 68.5078125 C-6.43458527 70.38607343 -7.62978659 72.54803916 -9 75 C-9.66 75 -10.32 75 -11 75 C-11.79139726 85.93886886 -9.7716516 94.78636863 -6.54663086 105.13549805 C-5.88325546 107.39820369 -5.44911083 109.68665551 -5 112 C-2.89147946 116.54996539 -0.40406481 118.64067957 4 121 C6.73173248 121.86463092 9.47320207 122.58688396 12.25390625 123.27734375 C14.69763478 123.92043021 16.96746731 124.69328836 19.3125 125.625 C22.60031767 126.85096591 25.53160488 127.56645061 29 128 C29 128.66 29 129.32 29 130 C36.49076746 130.60409415 41.71226963 129.2195544 48 125 C48.66 124.01 49.32 123.02 50 122 C51.65532623 120.98133771 53.32260138 119.98189187 55 119 C55.556875 118.443125 56.11375 117.88625 56.6875 117.3125 C57.120625 116.879375 57.55375 116.44625 58 116 C58.66 116 59.32 116 60 116 C60 115.34 60 114.68 60 114 C61.609375 112.34375 61.609375 112.34375 63.75 110.5 C64.79414062 109.58734375 64.79414062 109.58734375 65.859375 108.65625 C68 107 68 107 70.203125 105.96875 C72.35632919 105.0726576 72.35632919 105.0726576 73 102 C74.66279327 100.9935725 76.32983484 99.99414593 78 99 C78.7425 98.01 78.7425 98.01 79.5 97 C81.33201174 94.55731768 83.38979109 93.53935397 86 92 C86.66 91.01 87.32 90.02 88 89 C89.485 88.01 89.485 88.01 91 87 C91.66 86.34 92.32 85.68 93 85 C97.22857143 81.91428571 97.22857143 81.91428571 100.8125 82.3125 C101.534375 82.539375 102.25625 82.76625 103 83 C103.13277344 83.61488281 103.26554687 84.22976562 103.40234375 84.86328125 C103.57894531 85.67152344 103.75554687 86.47976562 103.9375 87.3125 C104.11152344 88.11300781 104.28554688 88.91351563 104.46484375 89.73828125 C104.99886159 92.145401 104.99886159 92.145401 106 95 C106 95.99 106 96.98 106 98 C106.03480469 99.28261719 106.06960938 100.56523438 106.10546875 101.88671875 C106.42666119 117.457997 103.98721136 131.21557647 99 146 C98.34 146 97.68 146 97 146 C96.67 147.98 96.34 149.96 96 152 C95.34 152 94.68 152 94 152 C93.79375 152.825 93.5875 153.65 93.375 154.5 C91.60733507 158.99951072 88.98629166 162.23973825 86 166 C85.43796875 166.75925781 84.8759375 167.51851562 84.296875 168.30078125 C80.62064978 173.22725424 76.80836606 177.19106337 72 181 C70.95740134 181.89474848 69.91569235 182.79053498 68.875 183.6875 C66.30743001 185.75271934 63.84012362 187.34876534 61 189 C59.53942597 189.99672444 58.08132732 190.99708084 56.625 192 C52.84744837 194.54137609 49.21082708 196.29947368 45 198 C43.8553125 198.7734375 43.8553125 198.7734375 42.6875 199.5625 C39.36804075 201.33802472 36.26630638 201.88420064 32.578125 202.53125 C30.33669037 202.93878357 28.19799055 203.47406158 26 204.0625 C18.52375531 205.78569977 10.63718628 205.68693303 3 206 C3 205.34 3 204.68 3 204 C2.48953125 204.17660156 1.9790625 204.35320312 1.453125 204.53515625 C-1.88252254 205.16722959 -4.87472001 204.76204615 -8.25 204.4375 C-16.91001172 203.74315839 -22.96455338 204.43027143 -30 210 C-32.13255432 212.09246871 -34.21746282 214.21544501 -36.265625 216.390625 C-38 218 -38 218 -40 218 C-40 218.99 -40 219.98 -40 221 C-41.66279327 222.0064275 -43.32983484 223.00585407 -45 224 C-45.350625 224.70125 -45.70125 225.4025 -46.0625 226.125 C-46.371875 226.74375 -46.68125 227.3625 -47 228 C-47.66 228.144375 -48.32 228.28875 -49 228.4375 C-49.66 228.623125 -50.32 228.80875 -51 229 C-51.67441131 230.6635479 -52.3400321 232.33066942 -53 234 C-54.62332967 235.38576923 -56.28724465 236.72641268 -58 238 C-58.33 238.66 -58.66 239.32 -59 240 C-59.66 240 -60.32 240 -61 240 C-61 240.66 -61 241.32 -61 242 C-61.66 242 -62.32 242 -63 242 C-63.33 242.99 -63.66 243.98 -64 245 C-68.31818182 249.77272727 -68.31818182 249.77272727 -72 251 C-72.68620031 252.32338632 -73.34786461 253.65949948 -74 255 C-77.05746623 258.96644268 -80.04761199 261.90218237 -84 265 C-84.66 265.99 -85.32 266.98 -86 268 C-86.66 268 -87.32 268 -88 268 C-88 268.66 -88 269.32 -88 270 C-88.66 270.33 -89.32 270.66 -90 271 C-89.67 271.66 -89.34 272.32 -89 273 C-90.32 273 -91.64 273 -93 273 C-93.2475 273.61875 -93.495 274.2375 -93.75 274.875 C-95 277 -95 277 -97 277.9375 C-99.22390002 278.83203931 -99.22390002 278.83203931 -99.8125 281.25 C-101.51764866 285.19876532 -104.48281267 287.58608134 -108 290 C-108.66 290 -109.32 290 -110 290 C-110.3403125 291.0828125 -110.3403125 291.0828125 -110.6875 292.1875 C-112.26919718 295.57685109 -114.20114502 297.5424688 -117 300 C-117.99 300.33 -118.98 300.66 -120 301 C-120 301.66 -120 302.32 -120 303 C-120.66 303 -121.32 303 -122 303 C-122.66 304.32 -123.32 305.64 -124 307 C-124.66 307 -125.32 307 -126 307 C-126.33 307.99 -126.66 308.98 -127 310 C-127.66 310 -128.32 310 -129 310 C-129 310.66 -129 311.32 -129 312 C-129.66 312 -130.32 312 -131 312 C-131.2475 312.61875 -131.495 313.2375 -131.75 313.875 C-133 316 -133 316 -135 316.9375 C-137.25612835 317.86008495 -137.25612835 317.86008495 -138 320.5 C-139.22249072 323.55622681 -140.13191548 323.65558538 -143 325 C-143.29132813 325.6084375 -143.58265625 326.216875 -143.8828125 326.84375 C-145.19629002 329.37885346 -146.67188377 330.63759561 -148.875 332.4375 C-152.00301978 335.06684996 -154.4674373 337.7855935 -157 341 C-157.66 341 -158.32 341 -159 341 C-159.483059 342.39449109 -159.96125517 343.79066707 -160.4375 345.1875 C-160.70433594 345.96480469 -160.97117188 346.74210937 -161.24609375 347.54296875 C-162.93089981 353.03386517 -163.09662048 357.99172289 -163 363.6875 C-162.86560226 371.73120453 -162.86560226 371.73120453 -164 374 C-163.95875 374.70125 -163.9175 375.4025 -163.875 376.125 C-164.01459127 379.33559915 -164.95230049 381.85120028 -166.140625 384.81640625 C-167.03328585 387.08457633 -167.80682245 389.37034589 -168.5625 391.6875 C-169.59967835 394.84270572 -170.71474372 397.93515811 -172 401 C-172.66 401 -173.32 401 -174 401 C-174.1546875 401.8353125 -174.1546875 401.8353125 -174.3125 402.6875 C-175.14178408 405.4769101 -176.34299056 407.6139064 -178 410 C-178.66 410 -179.32 410 -180 410 C-180.3403125 411.051875 -180.3403125 411.051875 -180.6875 412.125 C-183.00588705 417.20337164 -185.9776429 420.64577011 -191 423 C-191.66 423.721875 -192.32 424.44375 -193 425.1875 C-202.92533744 435.41451943 -219.18619412 440.39166555 -233 442 C-234.27488281 442.15726562 -235.54976563 442.31453125 -236.86328125 442.4765625 C-250.7437198 443.89754737 -264.45933708 441.27033146 -277 435 C-277.33 435.66 -277.66 436.32 -278 437 C-279.5 435.625 -279.5 435.625 -281 434 C-281 433.34 -281 432.68 -281 432 C-282.98 431.67 -284.96 431.34 -287 431 C-287.495 429.515 -287.495 429.515 -288 428 C-289.65 427.67 -291.3 427.34 -293 427 C-293 426.34 -293 425.68 -293 425 C-294.0828125 424.6596875 -294.0828125 424.6596875 -295.1875 424.3125 C-301.7257821 421.26130168 -305.7643754 414.63454648 -310 409 C-310.71929687 408.06414062 -310.71929687 408.06414062 -311.453125 407.109375 C-311.88109375 406.53703125 -312.3090625 405.9646875 -312.75 405.375 C-313.11609375 404.88773437 -313.4821875 404.40046875 -313.859375 403.8984375 C-320.50841499 392.83188465 -323.48366747 379.66128222 -323.859375 366.9140625 C-323.8005094 364.0626635 -323.8005094 364.0626635 -325 362 C-324.34 362 -323.68 362 -323 362 C-323.05800781 361.41476562 -323.11601562 360.82953125 -323.17578125 360.2265625 C-323.52071872 353.66289518 -322.44491391 347.96096225 -320.6875 341.6875 C-320.47456299 340.92324707 -320.26162598 340.15899414 -320.04223633 339.37158203 C-318.75475927 334.98217236 -317.15178344 331.0559644 -315 327 C-314.505 325.783125 -314.01 324.56625 -313.5 323.3125 C-312.1725801 320.38111438 -311.29254196 319.08412905 -309 317 C-308.67 316.01 -308.34 315.02 -308 314 C-307.34 314 -306.68 314 -306 314 C-305.731875 313.195625 -305.46375 312.39125 -305.1875 311.5625 C-304.795625 310.716875 -304.40375 309.87125 -304 309 C-303.01 308.67 -302.02 308.34 -301 308 C-301 307.34 -301 306.68 -301 306 C-300.34 306 -299.68 306 -299 306 C-298.76925781 305.43539063 -298.53851563 304.87078125 -298.30078125 304.2890625 C-296.66191556 301.40505261 -294.65488986 299.58714263 -292.1875 297.375 C-291.33542969 296.59898437 -290.48335938 295.82296875 -289.60546875 295.0234375 C-287.10514074 293.08165352 -284.98477894 291.99671254 -282 291 C-282 290.34 -282 289.68 -282 289 C-268.03061965 283.01987609 -252.33399415 276.41189845 -236.8125 277.0625 C-225.09668419 276.87043745 -218.83895855 269.85265345 -211 262 C-210.24589844 261.25105469 -209.49179688 260.50210937 -208.71484375 259.73046875 C-207.58305132 258.58836386 -206.46910055 257.42826213 -205.375 256.25 C-204 255 -204 255 -202 255 C-201.731875 254.401875 -201.46375 253.80375 -201.1875 253.1875 C-200.00082594 251.00152146 -198.90400887 249.58667406 -197 248 C-196.34 248 -195.68 248 -195 248 C-194.74605469 247.41734375 -194.49210938 246.8346875 -194.23046875 246.234375 C-192.86679667 243.75811967 -191.35774797 242.19479374 -189.3125 240.25 C-186.56059354 237.57742778 -183.97514318 234.86784192 -181.5 231.9375 C-178.52013947 228.45985956 -175.26325405 225.54091626 -171.7734375 222.5859375 C-169.55537029 220.6023796 -167.84910299 218.32629086 -166 216 C-164.23289221 214.42523047 -162.42705869 212.91705614 -160.5859375 211.4296875 C-158.75106596 209.89374096 -158.75106596 209.89374096 -157 207 C-156.34 207 -155.68 207 -155 207 C-155 206.34 -155 205.68 -155 205 C-154.34 205 -153.68 205 -153 205 C-152.62875 204.0409375 -152.62875 204.0409375 -152.25 203.0625 C-151.63125 202.0415625 -151.63125 202.0415625 -151 201 C-150.01 200.7834375 -150.01 200.7834375 -149 200.5625 C-148.34 200.376875 -147.68 200.19125 -147 200 C-146.30959426 198.34302621 -145.6469365 196.6744239 -145 195 C-142.5625 192.375 -142.5625 192.375 -140 190 C-139.443125 189.401875 -138.88625 188.80375 -138.3125 188.1875 C-137 187 -137 187 -135 187 C-134.773125 186.443125 -134.54625 185.88625 -134.3125 185.3125 C-132.04399551 181.31561114 -129.38100054 178.46033351 -125 177 C-124.67 176.34 -124.34 175.68 -124 175 C-123 173 -123 173 -120 172 C-118.87483915 170.16715557 -118.87483915 170.16715557 -118 168 C-117.0625 165.8125 -117.0625 165.8125 -116 164 C-115.01 163.67 -114.02 163.34 -113 163 C-112.484375 162.484375 -111.96875 161.96875 -111.4375 161.4375 C-110.963125 160.963125 -110.48875 160.48875 -110 160 C-109.34 160 -108.68 160 -108 160 C-107.73960937 159.41089844 -107.47921875 158.82179687 -107.2109375 158.21484375 C-105.92577526 155.86424056 -104.56513183 154.39672944 -102.625 152.5625 C-94.96250979 145.09077718 -90.39078205 137.29459828 -89.8125 126.5 C-90.01373102 119.53989453 -90.01373102 119.53989453 -92 113 C-92.05904663 109.36863209 -92.02055373 105.75172228 -91.9609375 102.12109375 C-91.79006557 97.9289339 -91.79006557 97.9289339 -93 94 C-92.80981445 92.15917969 -92.80981445 92.15917969 -92.36328125 89.921875 C-92.20005371 89.09671387 -92.03682617 88.27155273 -91.86865234 87.42138672 C-91.68512207 86.5398291 -91.5015918 85.65827148 -91.3125 84.75 C-91.12896973 83.8542627 -90.94543945 82.95852539 -90.75634766 82.03564453 C-86.43607272 61.43607272 -86.43607272 61.43607272 -83 58 C-82.3243044 56.33697334 -81.65935217 54.66957388 -81 53 C-79.86999885 50.87591764 -78.70135573 48.7720558 -77.5 46.6875 C-76.8915625 45.61886719 -76.283125 44.55023438 -75.65625 43.44921875 C-75.1096875 42.64097656 -74.563125 41.83273438 -74 41 C-73.34 41 -72.68 41 -72 41 C-71.62875 39.88625 -71.62875 39.88625 -71.25 38.75 C-69.89534961 35.76976913 -68.4898459 34.10080748 -66 32 C-65.34 32 -64.68 32 -64 32 C-63.6596875 31.13375 -63.6596875 31.13375 -63.3125 30.25 C-61.65151778 27.40260191 -59.68475439 25.87932807 -57 24 C-56.34 24 -55.68 24 -55 24 C-54.690625 23.1028125 -54.690625 23.1028125 -54.375 22.1875 C-52.4887056 19.1865771 -50.16638939 18.48626441 -47 17 C-46.2884375 16.2575 -46.2884375 16.2575 -45.5625 15.5 C-43.63997399 13.65437503 -41.55187034 12.87074814 -39.1015625 11.890625 C-35.75412748 10.47200941 -32.55663543 8.76171605 -29.33203125 7.0859375 C-27.16281773 6.07581797 -25.33143804 5.48947318 -23 5 C-21.95328125 4.7628125 -20.9065625 4.525625 -19.828125 4.28125 C-8.99513182 1.91596765 -8.99513182 1.91596765 -4.1875 1.375 C-1.14415336 1.35070145 -1.14415336 1.35070145 0 0 Z M-268 336 C-268.99 336.495 -268.99 336.495 -270 337 C-270.65555119 339.52733235 -270.65555119 339.52733235 -271 342 C-271.66 342 -272.32 342 -273 342 C-278.52873393 351.76742994 -280.52644099 362.47867559 -277.8828125 373.5 C-274.83105252 382.14215217 -268.89740383 390.05129808 -260.625 394.1875 C-259.75875 394.455625 -258.8925 394.72375 -258 395 C-257.34257812 395.25652344 -256.68515625 395.51304687 -256.0078125 395.77734375 C-247.60618606 398.93158759 -239.51964699 398.86436407 -231 396 C-227.85108728 394.54388513 -224.92548377 392.86063058 -222 391 C-221.113125 390.443125 -220.22625 389.88625 -219.3125 389.3125 C-215.77078577 385.77078577 -212.96722917 381.6148534 -211 377 C-211.23677296 374.75080727 -211.23677296 374.75080727 -212 373 C-211.34 373 -210.68 373 -210 373 C-207.62525962 359.27927779 -210.61528694 350.37144881 -218 339 C-218.66 339 -219.32 339 -220 339 C-220 338.34 -220 337.68 -220 337 C-220.99 337 -221.98 337 -223 337 C-223.20625 336.4225 -223.4125 335.845 -223.625 335.25 C-226.85602726 329.96286448 -232.26810957 328.39117757 -238 327 C-250.27207227 325.73962501 -258.72074903 327.8806554 -268 336 Z " fill="#f5930a" transform="translate(337,8)"/>
<path d="M0 0 C0.495 0.99 0.495 0.99 1 2 C-0.2065625 3.0828125 -0.2065625 3.0828125 -1.4375 4.1875 C-4.16594876 6.68093686 -4.16594876 6.68093686 -4.4375 9.4375 C-5.27996142 13.27537982 -7.85167612 15.72098943 -11 18 C-11.99 18 -12.98 18 -14 18 C-14.20625 18.556875 -14.4125 19.11375 -14.625 19.6875 C-16.57683032 22.97012371 -18.94230994 24.70673246 -22 27 C-22.66 27 -23.32 27 -24 27 C-24.103125 27.763125 -24.20625 28.52625 -24.3125 29.3125 C-25.31689994 33.23879068 -27.01717556 34.37926877 -30.375 36.5 C-32.10733607 37.48990632 -33.85757122 38.44920397 -35.625 39.375 C-38.38053452 41.26036573 -39.37704482 43.12294309 -41 46 C-44 48 -44 48 -46.1875 47.625 C-46.785625 47.41875 -47.38375 47.2125 -48 47 C-47.10796875 46.18015625 -46.2159375 45.3603125 -45.296875 44.515625 C-44.11454214 43.42712808 -42.93225277 42.33858392 -41.75 41.25 C-41.16347656 40.71117187 -40.57695313 40.17234375 -39.97265625 39.6171875 C-36.33106737 36.26201572 -32.74624478 32.8805713 -29.375 29.25 C-28 28 -28 28 -26 28 C-25.731875 27.401875 -25.46375 26.80375 -25.1875 26.1875 C-24.00082594 24.00152146 -22.90400887 22.58667406 -21 21 C-20.34 21 -19.68 21 -19 21 C-18.61908203 20.12601563 -18.61908203 20.12601563 -18.23046875 19.234375 C-16.86679667 16.75811967 -15.35774797 15.19479374 -13.3125 13.25 C-9.80803562 9.84766937 -6.5891323 6.30243396 -3.4453125 2.56640625 C-2 1 -2 1 0 0 Z " fill="#f5930a" transform="translate(161,235)"/>
<path d="M0 0 C0.66 0.33 1.32 0.66 2 1 C1.38125 1.721875 0.7625 2.44375 0.125 3.1875 C-2.05649615 5.78494963 -2.05649615 5.78494963 -2.859375 8.390625 C-4.22158212 11.50690704 -5.92269722 13.22018422 -8.375 15.5625 C-9.53128906 16.67818359 -9.53128906 16.67818359 -10.7109375 17.81640625 C-11.46632812 18.53699219 -12.22171875 19.25757813 -13 20 C-13.71027344 20.72832031 -14.42054688 21.45664063 -15.15234375 22.20703125 C-17.01358176 24.01317976 -18.68810921 24.88391479 -21 26 C-21.33 26.66 -21.66 27.32 -22 28 C-22.99 28 -23.98 28 -25 28 C-23.59799333 23.5390697 -21.40216594 21.15322697 -18 18 C-17.443125 17.401875 -16.88625 16.80375 -16.3125 16.1875 C-15 15 -15 15 -13 15 C-12.773125 14.443125 -12.54625 13.88625 -12.3125 13.3125 C-10.04399551 9.31561114 -7.38100054 6.46033351 -3 5 C-1.8499169 3.03327085 -1.8499169 3.03327085 -1 1 C-0.67 0.67 -0.34 0.34 0 0 Z " fill="#f5930a" transform="translate(215,180)"/>
<path d="M0 0 C1.65 0.33 3.3 0.66 5 1 C5.13277344 1.61488281 5.26554687 2.22976562 5.40234375 2.86328125 C5.57894531 3.67152344 5.75554687 4.47976562 5.9375 5.3125 C6.19853516 6.51326172 6.19853516 6.51326172 6.46484375 7.73828125 C6.99886159 10.145401 6.99886159 10.145401 8 13 C8 13.99 8 14.98 8 16 C8.03480469 17.28261719 8.06960938 18.56523438 8.10546875 19.88671875 C8.36904308 32.80593691 7.33071776 44.70452739 3 57 C2.67 57 2.34 57 2 57 C1.73436834 52.83843732 1.91671094 49.92555073 3.49609375 46.05859375 C5.56562403 40.08519074 5.36602353 34.25801933 5.25 28 C5.24226563 26.28490234 5.24226563 26.28490234 5.234375 24.53515625 C5.67031618 19.410591 5.67031618 19.410591 4 15 C3.76472227 12.65012738 3.58613583 10.29443961 3.4375 7.9375 C3.35371094 6.64714844 3.26992188 5.35679688 3.18359375 4.02734375 C3.12300781 3.02832031 3.06242187 2.02929688 3 1 C1.68 1.33 0.36 1.66 -1 2 C-0.67 1.34 -0.34 0.68 0 0 Z " fill="#f5930a" transform="translate(435,90)"/>
<path d="M0 0 C0.66 0.33 1.32 0.66 2 1 C0.1624361 6.62753945 -2.18512673 9.38895215 -6.74609375 13.1015625 C-10.00017138 15.84243205 -12.88608425 18.91195648 -15.82421875 21.984375 C-18.09258593 24.08577081 -20.23192188 25.62284671 -23 27 C-23.66 26.67 -24.32 26.34 -25 26 C-24.57589844 25.5875 -24.15179688 25.175 -23.71484375 24.75 C-19.81480458 20.90996143 -16.15262284 16.93730552 -12.5703125 12.80078125 C-10.7940913 10.76387087 -9.02158138 8.79696122 -7 7 C-6.34 7 -5.68 7 -5 7 C-5 6.34 -5 5.68 -5 5 C-4.34 5 -3.68 5 -3 5 C-2.690625 4.360625 -2.38125 3.72125 -2.0625 3.0625 C-1 1 -1 1 0 0 Z " fill="#f5930a" transform="translate(187,208)"/>
<path d="M0 0 C13.2 0 26.4 0 40 0 C40.495 0.99 40.495 0.99 41 2 C37.20845538 2.33473134 33.41674514 2.66754841 29.625 3 C28.54476563 3.09539062 27.46453125 3.19078125 26.3515625 3.2890625 C24.8046875 3.42441406 24.8046875 3.42441406 23.2265625 3.5625 C21.79691162 3.68818359 21.79691162 3.68818359 20.33837891 3.81640625 C18 4 18 4 16 4 C16 3.34 16 2.68 16 2 C15.45730469 2.17144531 14.91460937 2.34289062 14.35546875 2.51953125 C11.54567549 3.09267316 9.16599325 2.9427524 6.3125 2.6875 C5.33925781 2.60886719 4.36601562 2.53023437 3.36328125 2.44921875 C2.19345703 2.22685547 2.19345703 2.22685547 1 2 C0.67 1.34 0.34 0.68 0 0 Z " fill="#f5930a" transform="translate(324,210)"/>
<path d="M0 0 C0.33 0.66 0.66 1.32 1 2 C-0.2065625 3.0828125 -0.2065625 3.0828125 -1.4375 4.1875 C-4.16594876 6.68093686 -4.16594876 6.68093686 -4.4375 9.4375 C-5.27996142 13.27537982 -7.85167612 15.72098943 -11 18 C-11.99 18 -12.98 18 -14 18 C-14.226875 18.598125 -14.45375 19.19625 -14.6875 19.8125 C-16.33811133 22.56351888 -18.1972081 23.52484637 -21 25 C-19.71671768 20.10792927 -17.99077431 17.56106023 -14.3125 14.125 C-10.42749221 10.40866114 -6.82451546 6.61726968 -3.375 2.49609375 C-2 1 -2 1 0 0 Z " fill="#f5930a" transform="translate(161,235)"/>
<path d="M0 0 C1.40079035 0.11796129 2.79677913 0.29500262 4.1875 0.5 C8.03265982 0.98982928 11.17967043 0.74543016 15 0 C15.66 0.33 16.32 0.66 17 1 C17 1.66 17 2.32 17 3 C16.17314697 3.00616333 16.17314697 3.00616333 15.32958984 3.01245117 C3.16440739 3.16918667 -8.14525908 4.279987 -19.93994141 7.36010742 C-21.2419751 7.69619019 -21.2419751 7.69619019 -22.5703125 8.0390625 C-23.33102051 8.24740723 -24.09172852 8.45575195 -24.87548828 8.67041016 C-27.2223156 9.03448932 -28.75893091 8.72839508 -31 8 C-28.0405629 5.45461259 -26.1350105 4.629276 -22.25 4.4375 C-18.30433969 4.15401414 -14.76162586 3.51872605 -10.95703125 2.47265625 C-8.82760998 1.95836488 -6.73870273 1.68101825 -4.5625 1.4375 C-1.18905402 1.39426871 -1.18905402 1.39426871 0 0 Z " fill="#f5930a" transform="translate(337,8)"/>
<path d="M0 0 C0.66 0.33 1.32 0.66 2 1 C1.505 1.598125 1.01 2.19625 0.5 2.8125 C-1.28276418 4.97029994 -1.28276418 4.97029994 -1 8 C-1.928125 8.12375 -1.928125 8.12375 -2.875 8.25 C-5.16150356 8.78035516 -5.16150356 8.78035516 -5.9375 10.875 C-7.37340189 13.74680379 -9.17417091 14.58708546 -12 16 C-12.66 16 -13.32 16 -14 16 C-14.2475 16.61875 -14.495 17.2375 -14.75 17.875 C-16.20628639 20.35068687 -17.37812506 20.95125002 -20 22 C-20.66 21.34 -21.32 20.68 -22 20 C-19.85177953 16.7776693 -18.2725249 15.91562433 -15 14 C-14.443125 13.443125 -13.88625 12.88625 -13.3125 12.3125 C-12.879375 11.879375 -12.44625 11.44625 -12 11 C-11.34 11 -10.68 11 -10 11 C-10 10.34 -10 9.68 -10 9 C-8.3203125 7.34375 -8.3203125 7.34375 -6.125 5.5 C-4.00964496 3.71066742 -1.95980876 1.95980876 0 0 Z " fill="#f5930a" transform="translate(407,113)"/>
<path d="M0 0 C1.76923828 0.04060547 1.76923828 0.04060547 3.57421875 0.08203125 C4.47785156 0.11683594 5.38148438 0.15164062 6.3125 0.1875 C6.3125 0.5175 6.3125 0.8475 6.3125 1.1875 C4.518125 1.55875 4.518125 1.55875 2.6875 1.9375 C-4.54655246 3.79043274 -8.95778885 8.27300056 -13.953125 13.578125 C-15.6875 15.1875 -15.6875 15.1875 -17.6875 15.1875 C-17.6875 16.1775 -17.6875 17.1675 -17.6875 18.1875 C-19.3375 18.8475 -20.9875 19.5075 -22.6875 20.1875 C-22.6875 19.5275 -22.6875 18.8675 -22.6875 18.1875 C-23.3475 17.8575 -24.0075 17.5275 -24.6875 17.1875 C-20.14110825 13.27255155 -20.14110825 13.27255155 -17.6875 12.8125 C-15.24240209 12.0484069 -14.64068278 11.10465034 -13.0625 9.125 C-12.27875 8.155625 -11.495 7.18625 -10.6875 6.1875 C-10.0275 6.1875 -9.3675 6.1875 -8.6875 6.1875 C-9.0175 5.1975 -9.3475 4.2075 -9.6875 3.1875 C-6.99455929 -0.5165087 -4.35133403 -0.12924755 0 0 Z " fill="#f5930a" transform="translate(314.6875,210.8125)"/>
<path d="M0 0 C0.33 0 0.66 0 1 0 C2.16036815 8.7027611 1.6797917 16.39280284 0 25 C-1.65 24.67 -3.3 24.34 -5 24 C-4.54639364 21.31162629 -4.08726026 18.62438775 -3.625 15.9375 C-3.49867188 15.18533203 -3.37234375 14.43316406 -3.2421875 13.65820312 C-2.43457615 8.99424757 -1.38290374 4.5275066 0 0 Z " fill="#f5930a" transform="translate(249,79)"/>
<path d="M0 0 C0.33 0.99 0.66 1.98 1 3 C-3.00295201 7.11245525 -7.06805484 11.01425063 -11.51953125 14.640625 C-13.25681991 16.12770739 -13.25681991 16.12770739 -15 19 C-15.99 18.67 -16.98 18.34 -18 18 C-17.67 17.34 -17.34 16.68 -17 16 C-16.34 16 -15.68 16 -15 16 C-14.7525 15.2575 -14.505 14.515 -14.25 13.75 C-12.89534961 10.76976913 -11.4898459 9.10080748 -9 7 C-8.34 7 -7.68 7 -7 7 C-6.731875 6.401875 -6.46375 5.80375 -6.1875 5.1875 C-3.37142857 0 -3.37142857 0 0 0 Z " fill="#f5930a" transform="translate(280,33)"/>
<path d="M0 0 C-0.99 0.33 -1.98 0.66 -3 1 C-3.30035156 1.66257812 -3.60070312 2.32515625 -3.91015625 3.0078125 C-5 5 -5 5 -6.99609375 5.6171875 C-7.80175781 5.70226562 -8.60742188 5.78734375 -9.4375 5.875 C-14.90650725 6.73350695 -18.9423642 8.92504782 -23.65234375 11.7578125 C-26 13 -26 13 -29 13 C-23.97056951 8.92208339 -18.85019246 5.35310447 -13.0625 2.4375 C-12.20785156 2.00308594 -11.35320312 1.56867188 -10.47265625 1.12109375 C-6.56649037 -0.64994829 -4.13131873 -1.32792388 0 0 Z " fill="#f5930a" transform="translate(76,291)"/>
<path d="M0 0 C0.33 0 0.66 0 1 0 C1 1.65 1 3.3 1 5 C0.34 5 -0.32 5 -1 5 C-1.12375 6.27875 -1.2475 7.5575 -1.375 8.875 C-1.75 12.75 -1.75 12.75 -4 15 C-7 16 -7 16 -10 17 C-11.68756133 17.96432076 -13.35666496 18.96210419 -15 20 C-18.48243464 22.11056645 -18.48243464 22.11056645 -21.12109375 21.546875 C-21.74113281 21.36640625 -22.36117187 21.1859375 -23 21 C-22.19175781 20.62488281 -21.38351563 20.24976563 -20.55078125 19.86328125 C-11.07835937 15.32703096 -6.39622482 11.12477835 -1.234375 2.01171875 C-0.82703125 1.34785156 -0.4196875 0.68398438 0 0 Z " fill="#f5930a" transform="translate(126,383)"/>
<path d="M0 0 C0.66 0.33 1.32 0.66 2 1 C1.07161713 2.31896465 0.13194268 3.62998689 -0.8125 4.9375 C-1.59560547 6.03384766 -1.59560547 6.03384766 -2.39453125 7.15234375 C-4 9 -4 9 -7 10 C-7.61875 10.845625 -8.2375 11.69125 -8.875 12.5625 C-11 15 -11 15 -13.75 15.3125 C-14.86375 15.1578125 -14.86375 15.1578125 -16 15 C-14.52742891 11.11776713 -12.52050292 10.02428918 -9 8 C-8.34 7.01 -7.68 6.02 -7 5 C-6.01 4.34 -5.02 3.68 -4 3 C-3.34 2.34 -2.68 1.68 -2 1 C-1.34 0.67 -0.68 0.34 0 0 Z " fill="#f5930a" transform="translate(432,92)"/>
<path d="M0 0 C1.32 0.66 2.64 1.32 4 2 C3.04956626 3.33897583 2.08940853 4.67105427 1.125 6 C0.59132813 6.7425 0.05765625 7.485 -0.4921875 8.25 C-0.98976563 8.8275 -1.48734375 9.405 -2 10 C-2.66 10 -3.32 10 -4 10 C-4 14.29 -4 18.58 -4 23 C-4.66 22.67 -5.32 22.34 -6 22 C-6.4140625 19.05859375 -6.4140625 19.05859375 -6.625 15.4375 C-6.69976562 14.23996094 -6.77453125 13.04242188 -6.8515625 11.80859375 C-6.90054687 10.88175781 -6.94953125 9.95492187 -7 9 C-6.01 8.67 -5.02 8.34 -4 8 C-4.33 7.01 -4.66 6.02 -5 5 C-3.35 3.35 -1.7 1.7 0 0 Z " fill="#f5930a" transform="translate(330,73)"/>
<path d="M0 0 C0 0.33 0 0.66 0 1 C-1.23363281 1.02126953 -1.23363281 1.02126953 -2.4921875 1.04296875 C-12.74916365 1.48119983 -20.29319732 4.06387759 -28 11 C-28.66 10.67 -29.32 10.34 -30 10 C-29.38125 9.608125 -28.7625 9.21625 -28.125 8.8125 C-25.66144972 6.71123653 -25.16868417 4.96066658 -24 2 C-16.17326291 -0.60891236 -8.16128483 -0.10187457 0 0 Z " fill="#f5930a" transform="translate(97,334)"/>
<path d="M0 0 C0 4.36826179 -0.04848857 7.74264561 -2.75 11.3125 C-5.2252397 13.16892978 -6.95281822 13.66142425 -10 14 C-10 14.66 -10 15.32 -10 16 C-11.32 15.67 -12.64 15.34 -14 15 C-13.34 15 -12.68 15 -12 15 C-11.74089844 14.4121875 -11.48179687 13.824375 -11.21484375 13.21875 C-9.91540207 10.84549317 -8.52161971 9.3537907 -6.5625 7.5 C-4.1192676 5.13311862 -1.92112855 2.82518905 0 0 Z " fill="#f5930a" transform="translate(241,153)"/>
<path d="M0 0 C0.33 0.66 0.66 1.32 1 2 C0.34 2 -0.32 2 -1 2 C-1 2.66 -1 3.32 -1 4 C-1.99 4.66 -2.98 5.32 -4 6 C-5.01529541 8.32671865 -6.01488198 10.6603447 -7 13 C-8.82814755 15.49292848 -9.65552182 15.91187768 -12.6875 16.6875 C-13.450625 16.790625 -14.21375 16.89375 -15 17 C-14.1875 14.5625 -14.1875 14.5625 -13 12 C-12.01 11.67 -11.02 11.34 -10 11 C-10 10.34 -10 9.68 -10 9 C-9.34 9 -8.68 9 -8 9 C-7.79375 8.443125 -7.5875 7.88625 -7.375 7.3125 C-5.44999226 4.07498698 -2.96149098 2.31768859 0 0 Z " fill="#f5930a" transform="translate(46,305)"/>
<path d="M0 0 C0.66 0.33 1.32 0.66 2 1 C1.67 1.66 1.34 2.32 1 3 C0.34 3 -0.32 3 -1 3 C-1 3.66 -1 4.32 -1 5 C-1.66 5 -2.32 5 -3 5 C-3.33 5.99 -3.66 6.98 -4 8 C-6.375 10.6875 -6.375 10.6875 -9 13 C-9.99 13 -10.98 13 -12 13 C-11.67 12.34 -11.34 11.68 -11 11 C-11.66 10.67 -12.32 10.34 -13 10 C-11.90536178 8.82438854 -10.79892814 7.6597511 -9.6875 6.5 C-9.07261719 5.8503125 -8.45773437 5.200625 -7.82421875 4.53125 C-6 3 -6 3 -3 3 C-1.31201173 1.56249809 -1.31201173 1.56249809 0 0 Z " fill="#f5930a" transform="translate(277,245)"/>
<path d="M0 0 C1.24546405 2.49092811 0.7767578 3.41080733 0 6 C-0.66 6 -1.32 6 -2 6 C-2.33 7.98 -2.66 9.96 -3 12 C-3.66 12 -4.32 12 -5 12 C-5.33 13.65 -5.66 15.3 -6 17 C-7.49693208 14.63300992 -8.0958646 13.51538217 -7.57421875 10.7109375 C-7.28160156 9.94007813 -6.98898437 9.16921875 -6.6875 8.375 C-6.40261719 7.59898437 -6.11773437 6.82296875 -5.82421875 6.0234375 C-4.38709555 2.49533409 -3.47667453 1.57011108 0 0 Z " fill="#f5930a" transform="translate(436,148)"/>
<path d="M0 0 C6.50666545 0.33655166 9.37869575 1.37869575 14 6 C14.33 6.66 14.66 7.32 15 8 C15.99 8.66 16.98 9.32 18 10 C17.34 10 16.68 10 16 10 C15.67 10.66 15.34 11.32 15 12 C13.5 10.625 13.5 10.625 12 9 C12 8.34 12 7.68 12 7 C9.03 6.505 9.03 6.505 6 6 C5.67 5.01 5.34 4.02 5 3 C3.35 2.67 1.7 2.34 0 2 C0 1.34 0 0.68 0 0 Z " fill="#f5930a" transform="translate(44,433)"/>
<path d="M0 0 C2.36234412 0.38102325 4.58667064 0.83216864 6.80859375 1.734375 C14.11005311 4.6604797 21.2599272 4.27533856 29 4 C25.1909541 6.53936393 22.09653805 6.29495196 17.6875 6.25 C16.56698242 6.26160156 16.56698242 6.26160156 15.42382812 6.2734375 C10.89740352 6.25754136 7.26101949 5.70711751 3 4 C3 3.01 3 2.02 3 1 C2.01 0.67 1.02 0.34 0 0 Z " fill="#f5930a" transform="translate(74,401)"/>
<path d="M0 0 C0.99 0.33 1.98 0.66 3 1 C-0.625 5.875 -0.625 5.875 -4 7 C-5.01866229 8.65532623 -6.01810813 10.32260138 -7 12 C-10 14 -10 14 -12.1875 13.625 C-12.785625 13.41875 -13.38375 13.2125 -14 13 C-13.07316406 12.14535156 -12.14632812 11.29070312 -11.19140625 10.41015625 C-9.98176077 9.29428174 -8.7721259 8.17839573 -7.5625 7.0625 C-6.64500977 6.21655273 -6.64500977 6.21655273 -5.70898438 5.35351562 C-5.12568359 4.81533203 -4.54238281 4.27714844 -3.94140625 3.72265625 C-3.40201416 3.22515869 -2.86262207 2.72766113 -2.30688477 2.21508789 C-1.52614632 1.48918929 -0.75381738 0.75381738 0 0 Z " fill="#f5930a" transform="translate(127,269)"/>
<path d="M0 0 C2.83221708 2.83221708 2.37102472 4.98985006 2.5625 8.9375 C2.79844579 14.05885565 2.79844579 14.05885565 4 19 C4.06740865 20.56118428 4.08514456 22.1250252 4.0625 23.6875 C4.05347656 24.49574219 4.04445312 25.30398437 4.03515625 26.13671875 C4.02355469 26.75160156 4.01195312 27.36648437 4 28 C3.34 27.67 2.68 27.34 2 27 C1.71073053 24.97511372 1.42727846 22.94755984 1.24609375 20.91015625 C1.09593122 18.91747967 1.09593122 18.91747967 0 17 C-0.07194869 14.11629667 -0.09291708 11.25760336 -0.0625 8.375 C-0.05798828 7.57320313 -0.05347656 6.77140625 -0.04882812 5.9453125 C-0.03703168 3.96350994 -0.01909605 1.98174567 0 0 Z " fill="#f5930a" transform="translate(245,104)"/>
<path d="M0 0 C2.0625 0.4375 2.0625 0.4375 4 1 C3.566875 2.28583984 3.566875 2.28583984 3.125 3.59765625 C1.16118051 9.64594753 -0.28170858 14.66155697 0 21 C-0.66 21.66 -1.32 22.32 -2 23 C-2.02726927 20.64575325 -2.04696719 18.29183038 -2.0625 15.9375 C-2.07990234 13.97103516 -2.07990234 13.97103516 -2.09765625 11.96484375 C-1.84848485 1.84848485 -1.84848485 1.84848485 0 0 Z " fill="#f5930a" transform="translate(59,352)"/>
<path d="M0 0 C0.33 0.66 0.66 1.32 1 2 C1.66 2.33 2.32 2.66 3 3 C-0.72549784 8.00613773 -4.57158595 10.95577773 -10 14 C-10.33 12.68 -10.66 11.36 -11 10 C-10.236875 9.95875 -9.47375 9.9175 -8.6875 9.875 C-5.70841873 9.23968725 -5.70841873 9.23968725 -4.375 6.125 C-3.694375 4.578125 -3.694375 4.578125 -3 3 C-1.3125 1.125 -1.3125 1.125 0 0 Z " fill="#f5930a" transform="translate(414,178)"/>
<path d="M0 0 C3.76182186 3.31925459 4.83161477 7.22909362 6 12 C6.1875 15.5625 6.1875 15.5625 6 18 C6.66 18 7.32 18 8 18 C7.67 19.32 7.34 20.64 7 22 C3.31859445 15.39885901 0 7.69776539 0 0 Z " fill="#f5930a" transform="translate(14,384)"/>
<path d="M0 0 C1.03864166 3.11592499 1.09036928 4.0262656 0 7 C-0.99 7.495 -0.99 7.495 -2 8 C-2.83047008 9.85240164 -2.83047008 9.85240164 -3.5 12 C-4.21875 14.1875 -4.21875 14.1875 -5 16 C-5.66 16.33 -6.32 16.66 -7 17 C-8.13350534 19.01669827 -8.13350534 19.01669827 -9 21 C-9.39799417 16.48939946 -8.12513554 13.93543619 -6 10 C-5.505 8.783125 -5.01 7.56625 -4.5 6.3125 C-3.21322738 3.47087712 -2.37414094 1.92192362 0 0 Z " fill="#f5930a" transform="translate(28,325)"/>
<path d="M0 0 C1.40079035 0.11796129 2.79677913 0.29500262 4.1875 0.5 C8.03265982 0.98982928 11.17967043 0.74543016 15 0 C15.66 0.33 16.32 0.66 17 1 C17 1.66 17 2.32 17 3 C8.42 3 -0.16 3 -9 3 C-9 2.67 -9 2.34 -9 2 C-6.94921875 1.77213542 -4.8984375 1.54427083 -2.84765625 1.31640625 C-0.98859771 1.18113386 -0.98859771 1.18113386 0 0 Z " fill="#f5930a" transform="translate(337,8)"/>
<path d="M0 0 C0.66 0.33 1.32 0.66 2 1 C0.66666667 2.66666667 -0.66666667 4.33333333 -2 6 C-2.99 7.2684375 -2.99 7.2684375 -4 8.5625 C-5.90264322 10.88134643 -7.73710172 13.0290886 -10 15 C-10.99 15 -11.98 15 -13 15 C-11.4411666 11.17377257 -9.04566418 8.74852621 -6 6 C-5.01 5.67 -4.02 5.34 -3 5 C-1.8499169 3.03327085 -1.8499169 3.03327085 -1 1 C-0.67 0.67 -0.34 0.34 0 0 Z " fill="#f5930a" transform="translate(215,180)"/>
<path d="M0 0 C2.22950991 2.22950991 2.43601702 3.13048055 3.0703125 6.1328125 C3.33134766 7.34130859 3.33134766 7.34130859 3.59765625 8.57421875 C3.77167969 9.41597656 3.94570313 10.25773437 4.125 11.125 C4.30675781 11.97449219 4.48851562 12.82398437 4.67578125 13.69921875 C5.12385016 15.79806785 5.56279337 17.89886134 6 20 C5.01 19.67 4.02 19.34 3 19 C0.56546396 12.91365991 0.40483076 6.48794564 0 0 Z " fill="#f5930a" transform="translate(325,97)"/>
<path d="M0 0 C0 0.66 0 1.32 0 2 C-0.99 2.33 -1.98 2.66 -3 3 C-2.34 3.33 -1.68 3.66 -1 4 C-4.68611721 5.97164409 -7.87200539 7.34821138 -12 8 C-13.33542939 8.32483418 -14.66961551 8.6550855 -16 9 C-13.52563331 4.77902153 -10.46119452 3.72186455 -6 2 C-5.236875 1.608125 -4.47375 1.21625 -3.6875 0.8125 C-2 0 -2 0 0 0 Z " fill="#f5930a" transform="translate(306,17)"/>
<path d="M0 0 C0.66 0.33 1.32 0.66 2 1 C-0.97 4.63 -3.94 8.26 -7 12 C-7 9 -7 9 -6 7 C-6.66 6.67 -7.32 6.34 -8 6 C-5.38485683 3.87961365 -2.80362384 1.86908256 0 0 Z " fill="#f5930a" transform="translate(425,168)"/>
<path d="M0 0 C0.93045933 2.55144824 1.08564091 3.74006478 0.22265625 6.359375 C-0.16019531 7.14828125 -0.54304687 7.9371875 -0.9375 8.75 C-1.50791016 9.94882812 -1.50791016 9.94882812 -2.08984375 11.171875 C-2.39019531 11.77515625 -2.69054687 12.3784375 -3 13 C-3.66 12.67 -4.32 12.34 -5 12 C-5 9.69 -5 7.38 -5 5 C-4.01 4.67 -3.02 4.34 -2 4 C-0.79117904 1.99983534 -0.79117904 1.99983534 0 0 Z " fill="#f5930a" transform="translate(168,396)"/>
<path d="M0 0 C2.97 0.33 5.94 0.66 9 1 C9.66 3.31 10.32 5.62 11 8 C8 8 8 8 5.5 5.6875 C4.675 4.800625 3.85 3.91375 3 3 C2.01 2.01 1.02 1.02 0 0 Z " fill="#f5930a" transform="translate(106,337)"/>
<path d="M0 0 C0.33 0.66 0.66 1.32 1 2 C-1.31 4.64 -3.62 7.28 -6 10 C-6.99 9.67 -7.98 9.34 -9 9 C-8.67 8.34 -8.34 7.68 -8 7 C-7.34 7 -6.68 7 -6 7 C-5.7525 6.21625 -5.505 5.4325 -5.25 4.625 C-3.84610901 1.67682892 -2.99324263 1.0975223 0 0 Z " fill="#f5930a" transform="translate(271,42)"/>
<path d="M0 0 C1.75070517 0.11470137 3.50057536 0.24219028 5.25 0.375 C6.22453125 0.44460938 7.1990625 0.51421875 8.203125 0.5859375 C10.89633189 0.98465249 12.66963279 1.63507063 15 3 C15.33 2.34 15.66 1.68 16 1 C16 1.66 16 2.32 16 3 C16.99 3.33 17.98 3.66 19 4 C16.77027727 3.88534579 14.54121247 3.75785234 12.3125 3.625 C11.07113281 3.55539062 9.82976562 3.48578125 8.55078125 3.4140625 C5.30682228 3.03577906 2.93432815 2.38020024 0 1 C0 0.67 0 0.34 0 0 Z " fill="#f5930a" transform="translate(355,10)"/>
<path d="M0 0 C0.33 0.66 0.66 1.32 1 2 C-0.72569639 3.13031603 -2.45571739 4.25403107 -4.1875 5.375 C-5.15042969 6.00148438 -6.11335937 6.62796875 -7.10546875 7.2734375 C-9.69803936 8.81988312 -12.16853116 9.97508075 -15 11 C-14.67 10.34 -14.34 9.68 -14 9 C-13.34 9 -12.68 9 -12 9 C-12 7.68 -12 6.36 -12 5 C-11.13375 4.9175 -10.2675 4.835 -9.375 4.75 C-5.52265142 3.89392254 -3.151781 2.32631454 0 0 Z " fill="#f5930a" transform="translate(144,431)"/>
<path d="M0 0 C0.66 0 1.32 0 2 0 C1.67 1.65 1.34 3.3 1 5 C0.34 5 -0.32 5 -1 5 C-1 5.66 -1 6.32 -1 7 C-3.2727675 8.49524178 -5.5679943 9.78399715 -8 11 C-7.33333333 9.66666667 -6.66666667 8.33333333 -6 7 C-5.690625 6.278125 -5.38125 5.55625 -5.0625 4.8125 C-4 3 -4 3 -1 2 C-0.67 1.34 -0.34 0.68 0 0 Z " fill="#f5930a" transform="translate(225,169)"/>
<path d="M0 0 C0.66 0.33 1.32 0.66 2 1 C0.6875 4.4375 0.6875 4.4375 -1 8 C-1.99 8.33 -2.98 8.66 -4 9 C-3.38461538 3.46153846 -3.38461538 3.46153846 -1.4375 1.125 C-0.963125 0.75375 -0.48875 0.3825 0 0 Z M-7 10 C-6.34 10.33 -5.68 10.66 -5 11 C-5.99 11.66 -6.98 12.32 -8 13 C-7.67 12.01 -7.34 11.02 -7 10 Z " fill="#f5930a" transform="translate(187,208)"/>
<path d="M0 0 C0.33 0.66 0.66 1.32 1 2 C0.67 2.99 0.34 3.98 0 5 C-0.66 5 -1.32 5 -2 5 C-1.938125 5.7425 -1.87625 6.485 -1.8125 7.25 C-2.03094296 10.45383006 -2.90250005 11.64031256 -5 14 C-5.66 13.67 -6.32 13.34 -7 13 C-5.35821735 8.22390502 -2.73453298 4.20617096 0 0 Z " fill="#f5930a" transform="translate(261,53)"/>
<path d="M0 0 C0.66 1.32 1.32 2.64 2 4 C-2.5 7 -2.5 7 -7 10 C-6.42424336 6.64749299 -5.40693737 5.06181371 -2.9375 2.75 C-2.38964844 2.22921875 -1.84179688 1.7084375 -1.27734375 1.171875 C-0.64505859 0.59179688 -0.64505859 0.59179688 0 0 Z " fill="#f5930a" transform="translate(279,240)"/>
<path d="M0 0 C0.99 0.33 1.98 0.66 3 1 C3 2.32 3 3.64 3 5 C1.35 5.66 -0.3 6.32 -2 7 C-2 6.34 -2 5.68 -2 5 C-2.66 4.67 -3.32 4.34 -4 4 C-2.68 2.68 -1.36 1.36 0 0 Z " fill="#f5930a" transform="translate(294,224)"/>
<path d="M0 0 C3.6875 -0.3125 3.6875 -0.3125 7 0 C3.92000054 3.67230705 1.7517398 4.56802365 -3 5 C-1.9375 2.5 -1.9375 2.5 0 0 Z " fill="#f5930a" transform="translate(386,199)"/>
<path d="M0 0 C-1.04874998 2.62187494 -1.64931313 3.79371361 -4.125 5.25 C-4.74375 5.4975 -5.3625 5.745 -6 6 C-6.66 5.34 -7.32 4.68 -8 4 C-5.52914451 0.29371676 -4.37054922 0 0 0 Z " fill="#f5930a" transform="translate(393,129)"/>
<path d="M0 0 C0.66 0.33 1.32 0.66 2 1 C-0.97 4.96 -0.97 4.96 -4 9 C-4.99 8.34 -5.98 7.68 -7 7 C-6.34 7 -5.68 7 -5 7 C-4.731875 6.030625 -4.46375 5.06125 -4.1875 4.0625 C-3.5996875 2.5465625 -3.5996875 2.5465625 -3 1 C-2.01 0.67 -1.02 0.34 0 0 Z " fill="#f5930a" transform="translate(432,92)"/>
<path d="M0 0 C-1 3 -1 3 -3.25 4.25 C-6.28236729 5.07700926 -8.01120724 4.85394079 -11 4 C-7.61125486 1.74083657 -4.15175481 0 0 0 Z " fill="#f5930a" transform="translate(111,403)"/>
<path d="M0 0 C0.33 0.66 0.66 1.32 1 2 C-1.85276137 4.93200474 -4.65079784 7.64315404 -8 10 C-7.8125 7.125 -7.8125 7.125 -7 4 C-4.5625 2.75 -4.5625 2.75 -2 2 C-1.34 1.34 -0.68 0.68 0 0 Z " fill="#f5930a" transform="translate(192,333)"/>
<path d="M0 0 C0.66 0.33 1.32 0.66 2 1 C1.505 1.598125 1.01 2.19625 0.5 2.8125 C-1.28276418 4.97029994 -1.28276418 4.97029994 -1 8 C-2.98 8 -4.96 8 -7 8 C-7 7.34 -7 6.68 -7 6 C-5.46875 4.4921875 -5.46875 4.4921875 -3.5 2.875 C-2.8503125 2.33617188 -2.200625 1.79734375 -1.53125 1.2421875 C-1.0259375 0.83226563 -0.520625 0.42234375 0 0 Z " fill="#f5930a" transform="translate(407,113)"/>
<path d="M0 0 C0 0.99 0 1.98 0 3 C-1.75 4.75 -1.75 4.75 -4 6 C-6.25 5.6875 -6.25 5.6875 -8 5 C-5.31158141 2.74754119 -3.35358125 1.11786042 0 0 Z " fill="#f5930a" transform="translate(121,277)"/>
<path d="M0 0 C0.99 0 1.98 0 3 0 C2.71890887 1.64767247 2.42481474 3.29313145 2.125 4.9375 C1.96257812 5.85402344 1.80015625 6.77054688 1.6328125 7.71484375 C1.42398437 8.46894531 1.21515625 9.22304687 1 10 C0.01 10.495 0.01 10.495 -1 11 C-1.14285714 3.57142857 -1.14285714 3.57142857 0 0 Z " fill="#f5930a" transform="translate(438,136)"/>
<path d="M0 0 C-0.99 0.33 -1.98 0.66 -3 1 C-4.20882096 3.00016466 -4.20882096 3.00016466 -5 5 C-6.32 4.67 -7.64 4.34 -9 4 C-8.67 2.68 -8.34 1.36 -8 0 C-4.94736336 -0.98120464 -3.05263664 -0.98120464 0 0 Z " fill="#f5930a" transform="translate(76,291)"/>
<path d="M0 0 C1.65 0.99 3.3 1.98 5 3 C3.75 5.9375 3.75 5.9375 2 9 C-0.1875 9.875 -0.1875 9.875 -2 10 C-1.67 9.01 -1.34 8.02 -1 7 C-0.34 6.67 0.32 6.34 1 6 C1.65213292 3.97536745 1.65213292 3.97536745 2 2 C1.34 2 0.68 2 0 2 C0 1.34 0 0.68 0 0 Z " fill="#f5930a" transform="translate(384,18)"/>
<path d="M0 0 C-1 2 -1 2 -4.3125 3.1875 C-7.57562063 3.90649268 -8.99282882 4.20286847 -12 3 C-8.2391768 -0.7608232 -5.0273023 -0.25136512 0 0 Z " fill="#f5930a" transform="translate(318,13)"/>
<path d="M0 0 C0.66 0.33 1.32 0.66 2 1 C2 2.98 2 4.96 2 7 C2.66 7.33 3.32 7.66 4 8 C3.01 8 2.02 8 1 8 C-0.75 6.1875 -0.75 6.1875 -2 4 C-1 1 -1 1 0 0 Z " fill="#f5930a" transform="translate(24,406)"/>
<path d="M0 0 C0.33 0.66 0.66 1.32 1 2 C0.67 2.66 0.34 3.32 0 4 C-2.06640625 4.4140625 -2.06640625 4.4140625 -4.5625 4.625 C-5.38878906 4.69976562 -6.21507812 4.77453125 -7.06640625 4.8515625 C-8.02353516 4.92503906 -8.02353516 4.92503906 -9 5 C-6.14693203 2.67527795 -3.45925163 1.2491742 0 0 Z " fill="#f5930a" transform="translate(384,134)"/>
<path d="M0 0 C2.13586678 3.20380017 2.23132175 4.01939967 2.125 7.6875 C2.10695312 8.49574219 2.08890625 9.30398437 2.0703125 10.13671875 C2.04710937 10.75160156 2.02390625 11.36648437 2 12 C1.34 11.67 0.68 11.34 0 11 C-1.23098442 7.0832314 -0.83220851 3.97610732 0 0 Z " fill="#f5930a" transform="translate(247,120)"/>
<path d="M0 0 C0.33 0 0.66 0 1 0 C1.33 3.96 1.66 7.92 2 12 C1.01 12 0.02 12 -1 12 C-0.67 8.04 -0.34 4.08 0 0 Z " fill="#f5930a" transform="translate(323,88)"/>
<path d="M0 0 C2.125 0.375 2.125 0.375 4 1 C3.67 2.32 3.34 3.64 3 5 C1.68 5.33 0.36 5.66 -1 6 C-0.67 5.01 -0.34 4.02 0 3 C-0.66 2.67 -1.32 2.34 -2 2 C-1.34 1.34 -0.68 0.68 0 0 Z " fill="#f5930a" transform="translate(287,231)"/>
<path d="M0 0 C0.66 0.33 1.32 0.66 2 1 C-0.31 3.31 -2.62 5.62 -5 8 C-5.66 7.67 -6.32 7.34 -7 7 C-6.67 6.34 -6.34 5.68 -6 5 C-5.34 5 -4.68 5 -4 5 C-4.33 4.01 -4.66 3.02 -5 2 C-2.625 0.9375 -2.625 0.9375 0 0 Z " fill="#f5930a" transform="translate(355,52)"/>
<path d="M0 0 C-1.15173355 2.46800047 -2.04783565 4.04783565 -4 6 C-6.125 5.625 -6.125 5.625 -8 5 C-7.34 5 -6.68 5 -6 5 C-5.71125 4.360625 -5.4225 3.72125 -5.125 3.0625 C-3.72314735 0.49243681 -2.91896073 0 0 0 Z " fill="#f5930a" transform="translate(288,27)"/>
<path d="M0 0 C0.33 0.66 0.66 1.32 1 2 C1.66 2.33 2.32 2.66 3 3 C1.68 4.65 0.36 6.3 -1 8 C-1.625 5.125 -1.625 5.125 -2 2 C-1.34 1.34 -0.68 0.68 0 0 Z " fill="#f5930a" transform="translate(159,410)"/>
<path d="M0 0 C4.95694043 0.70813435 8.45443775 2.45443775 12 6 C7.545 5.01 7.545 5.01 3 4 C3 3.01 3 2.02 3 1 C2.01 0.67 1.02 0.34 0 0 Z " fill="#f5930a" transform="translate(74,401)"/>
<path d="M0 0 C0.66 0.33 1.32 0.66 2 1 C1.67 1.66 1.34 2.32 1 3 C0.34 3 -0.32 3 -1 3 C-1 3.66 -1 4.32 -1 5 C-1.66 5 -2.32 5 -3 5 C-3.33 5.99 -3.66 6.98 -4 8 C-4.66 8 -5.32 8 -6 8 C-6 5 -6 5 -4.6875 3.61328125 C-3.125 2.40885417 -1.5625 1.20442708 0 0 Z " fill="#f5930a" transform="translate(277,245)"/>
<path d="M0 0 C0.66 0 1.32 0 2 0 C2 0.99 2 1.98 2 3 C-0.3125 5.25 -0.3125 5.25 -3 7 C-3.99 6.67 -4.98 6.34 -6 6 C-4.68 5.34 -3.36 4.68 -2 4 C-2 3.34 -2 2.68 -2 2 C-1.34 2 -0.68 2 0 2 C0 1.34 0 0.68 0 0 Z " fill="#f5930a" transform="translate(47,305)"/>
<path d="M0 0 C1.32 0 2.64 0 4 0 C3.1875 2.4375 3.1875 2.4375 2 5 C1.01 5.33 0.02 5.66 -1 6 C-1.042721 4.33388095 -1.04063832 2.66617115 -1 1 C-0.67 0.67 -0.34 0.34 0 0 Z " fill="#f5930a" transform="translate(223,298)"/>
<path d="M0 0 C0.33 1.32 0.66 2.64 1 4 C-0.98 5.32 -2.96 6.64 -5 8 C-5.66 7.67 -6.32 7.34 -7 7 C-4.69 4.69 -2.38 2.38 0 0 Z " fill="#f5930a" transform="translate(149,247)"/>
<path d="M0 0 C1.65 0 3.3 0 5 0 C4.1875 2.4375 4.1875 2.4375 3 5 C2.01 5.33 1.02 5.66 0 6 C0 4.02 0 2.04 0 0 Z " fill="#f5930a" transform="translate(281,237)"/>
<path d="M0 0 C3.375 -0.125 3.375 -0.125 7 0 C7.66 0.66 8.32 1.32 9 2 C4.545 2.495 4.545 2.495 0 3 C0 2.01 0 1.02 0 0 Z " fill="#f5930a" transform="translate(326,208)"/>
<path d="M0 0 C0.66 0 1.32 0 2 0 C1.67 1.98 1.34 3.96 1 6 C0.01 6.33 -0.98 6.66 -2 7 C-2.125 4.625 -2.125 4.625 -2 2 C-1.34 1.34 -0.68 0.68 0 0 Z " fill="#f5930a" transform="translate(379,26)"/>
<path d="M0 0 C0.66 0.33 1.32 0.66 2 1 C0.515 3.475 0.515 3.475 -1 6 C-2.32 5.67 -3.64 5.34 -5 5 C-3.35 3.35 -1.7 1.7 0 0 Z " fill="#f5930a" transform="translate(140,256)"/>
<path d="M0 0 C0.66 0 1.32 0 2 0 C1.49396008 2.16874252 1.00016187 3.99967627 0 6 C-0.99 6 -1.98 6 -3 6 C-1.125 1.125 -1.125 1.125 0 0 Z " fill="#f5930a" transform="translate(193,202)"/>
<path d="M0 0 C0.33 0 0.66 0 1 0 C1.36923077 7.50769231 1.36923077 7.50769231 -0.5 10 C-0.995 10.33 -1.49 10.66 -2 11 C-1.125 3.375 -1.125 3.375 0 0 Z " fill="#f5930a" transform="translate(249,79)"/>
<path d="M0 0 C0.99 0 1.98 0 3 0 C2.67 0.99 2.34 1.98 2 3 C-1.63 3 -5.26 3 -9 3 C-9 2.67 -9 2.34 -9 2 C-6.94921875 1.77213542 -4.8984375 1.54427083 -2.84765625 1.31640625 C-0.98859771 1.18113386 -0.98859771 1.18113386 0 0 Z " fill="#f5930a" transform="translate(337,8)"/>
<path d="M0 0 C0 0.66 0 1.32 0 2 C-3.63 1.67 -7.26 1.34 -11 1 C-11 0.67 -11 0.34 -11 0 C-6.98195309 -0.84098656 -3.98196457 -1.05404945 0 0 Z " fill="#f5930a" transform="translate(99,333)"/>
<path d="M0 0 C0.99 0.33 1.98 0.66 3 1 C1.35 2.65 -0.3 4.3 -2 6 C-2.66 4.68 -3.32 3.36 -4 2 C-2.68 2 -1.36 2 0 2 C0 1.34 0 0.68 0 0 Z " fill="#f5930a" transform="translate(360,46)"/>
<path d="M0 0 C-0.5625 1.9375 -0.5625 1.9375 -2 4 C-5.625 4.75 -5.625 4.75 -9 5 C-7.36885863 1.73771726 -3.62038485 0 0 0 Z " fill="#f5930a" transform="translate(297,23)"/>
<path d="" fill="#f5930a" transform="translate(0,0)"/>
<path d="" fill="#f5930a" transform="translate(0,0)"/>
<path d="" fill="#f5930a" transform="translate(0,0)"/>
<path d="" fill="#f5930a" transform="translate(0,0)"/>
<path d="" fill="#f5930a" transform="translate(0,0)"/>
<path d="" fill="#f5930a" transform="translate(0,0)"/>
<path d="" fill="#f5930a" transform="translate(0,0)"/>
<path d="" fill="#f5930a" transform="translate(0,0)"/>
</svg>
